<?xml version="1.0" standalone="no"?>
<!DOCTYPE svg PUBLIC "-//W3C//DTD SVG 20010904//EN"
 "http://www.w3.org/TR/2001/REC-SVG-20010904/DTD/svg10.dtd">
<svg version="1.0" xmlns="http://www.w3.org/2000/svg"
 width="492.000000pt" height="332.000000pt" viewBox="0 0 492.000000 332.000000"
 preserveAspectRatio="xMidYMid meet">

<g transform="translate(0.000000,332.000000) scale(0.100000,-0.100000)"
fill="#000000" stroke="none">
<path d="M1505 3194 c-282 -41 -446 -99 -638 -227 -246 -164 -419 -420 -468
-691 -10 -58 -13 -63 -66 -101 -136 -98 -215 -276 -193 -433 30 -215 220 -373
454 -377 l78 -2 47 -64 c26 -35 71 -85 100 -111 l53 -46 -67 -67 c-93 -93
-176 -209 -230 -318 -61 -125 -79 -199 -80 -329 0 -99 2 -109 23 -130 22 -22
29 -23 170 -22 259 2 424 59 630 218 l72 56 83 -65 c139 -106 336 -220 480
-276 29 -11 66 -26 82 -34 56 -26 200 -63 310 -80 146 -23 429 -16 556 13 101
24 297 99 389 150 331 181 599 491 704 815 l23 72 67 7 c307 31 592 280 673
588 21 81 23 277 4 335 -34 103 -86 101 -149 -6 -34 -56 -116 -127 -185 -159
-56 -26 -78 -30 -217 -38 -116 -7 -164 -13 -190 -27 -33 -17 -35 -17 -45 0
-24 42 -62 79 -124 122 -101 71 -131 102 -167 178 -28 56 -34 81 -34 133 0 60
-11 99 -33 113 -21 14 -73 -17 -142 -87 -247 -246 -245 -652 4 -913 39 -41 71
-80 71 -87 0 -26 -191 -80 -255 -72 l-30 3 -7 115 c-12 206 -101 575 -176 728
l-26 54 18 51 c31 91 86 178 163 257 59 63 93 88 174 130 55 29 111 66 124 82
47 56 24 143 -57 213 -51 44 -179 106 -264 129 -197 53 -462 33 -667 -48 -35
-14 -67 -26 -70 -26 -4 0 -32 16 -63 36 -147 94 -347 178 -513 215 -83 18
-328 33 -396 23z m255 -104 c234 -28 422 -97 620 -228 197 -130 422 -393 502
-587 16 -38 35 -80 43 -92 21 -32 83 -183 121 -297 32 -95 33 -100 16 -119
-15 -16 -17 -46 -20 -218 l-3 -199 -57 39 c-150 101 -259 135 -422 129 -92 -3
-111 -6 -151 -30 -55 -32 -114 -114 -128 -176 -6 -27 -6 -80 -1 -135 7 -77 15
-104 49 -172 22 -44 59 -109 82 -145 55 -84 219 -249 287 -287 34 -20 65 -48
90 -84 63 -91 140 -113 374 -107 l147 3 -57 -32 c-142 -81 -347 -144 -533
-164 -189 -20 -452 18 -683 98 -252 87 -547 278 -709 460 -78 88 -180 223
-173 230 4 4 30 -3 60 -16 78 -32 175 -44 306 -38 127 6 216 28 312 79 65 34
102 68 75 68 -9 0 -62 -11 -119 -25 -138 -33 -235 -40 -354 -25 -250 31 -476
139 -591 282 -24 29 -43 58 -43 64 0 12 86 40 109 35 8 -1 39 -20 70 -42 121
-85 319 -75 473 24 113 72 230 232 283 386 15 42 33 89 41 104 17 35 18 78 1
101 -9 13 -23 17 -52 14 -36 -3 -40 -6 -43 -33 -6 -65 -13 -75 -82 -121 -66
-44 -90 -49 -90 -18 0 21 -21 17 -107 -20 -280 -123 -687 -185 -916 -142 -89
17 -167 53 -221 101 -38 34 -38 35 -32 88 21 162 152 290 346 338 80 19 259
17 355 -5 97 -22 216 -63 337 -117 127 -56 137 -49 52 36 -102 102 -231 163
-379 180 -117 13 -112 10 -117 70 -3 38 -12 64 -32 89 -25 33 -31 36 -80 36
-38 0 -61 -6 -79 -20 -34 -27 -67 -98 -67 -143 0 -36 -1 -37 -35 -37 -25 0
-35 4 -35 16 0 80 93 278 184 391 243 301 664 462 1076 413z m1410 -183 c105
-29 170 -59 229 -103 43 -32 58 -49 54 -63 -3 -13 -11 -17 -28 -13 -60 11
-348 -113 -462 -199 -35 -27 -68 -49 -73 -49 -4 0 -52 60 -105 133 -54 72
-117 149 -141 170 -76 66 -75 73 8 98 145 43 188 49 328 45 78 -2 158 -10 190
-19z m-2419 -506 c21 -16 22 -22 11 -45 -6 -14 -24 -32 -38 -38 -23 -11 -29
-10 -45 11 -24 30 -24 46 1 71 25 25 41 25 71 1z m2831 -316 c34 -64 96 -128
177 -183 116 -78 127 -95 115 -174 -11 -75 -5 -123 16 -123 8 0 21 12 28 28
19 40 77 92 130 117 38 18 73 23 208 29 152 8 166 10 228 39 39 18 91 54 125
87 32 30 60 55 63 55 10 0 -21 -227 -35 -260 l-15 -35 -1 40 -1 40 -32 -55
c-46 -80 -159 -188 -244 -232 -84 -44 -147 -62 -277 -78 -53 -7 -103 -17 -112
-24 -8 -6 -19 -35 -25 -64 -13 -68 -83 -204 -135 -261 -71 -78 -213 -151 -292
-151 -51 0 -107 22 -138 54 -31 30 -91 179 -80 196 3 5 14 6 25 3 65 -17 297
71 381 146 55 48 97 134 78 157 -6 8 -16 14 -21 14 -20 0 -127 87 -191 156
-70 75 -97 90 -97 54 0 -26 21 -67 77 -153 25 -37 43 -71 39 -74 -8 -8 -70 61
-107 119 -117 182 -102 421 39 645 l27 43 15 -63 c9 -34 23 -76 32 -92z m-882
-660 c126 -33 268 -133 380 -268 46 -55 85 -121 160 -274 55 -111 100 -204
100 -207 0 -9 -81 -12 -149 -5 -231 26 -419 111 -570 261 -60 58 -138 160
-152 197 -9 23 -15 24 -69 10 -10 -3 -18 10 -26 41 -29 106 -8 182 58 216 86
45 173 54 268 29z m-1723 -377 c11 -13 24 -34 28 -47 4 -14 21 -46 36 -72 16
-25 29 -52 29 -60 0 -8 -13 -43 -30 -77 -55 -116 -190 -233 -374 -324 -52 -26
-69 -39 -76 -63 -8 -23 -9 -15 -4 33 12 142 89 334 180 449 43 55 172 183 185
183 3 0 15 -10 26 -22z"/>
<path d="M1892 2668 c-41 -14 -116 -80 -147 -128 -64 -102 -73 -261 -20 -359
57 -103 141 -147 285 -145 130 1 220 50 273 149 18 32 22 57 22 130 0 77 -4
98 -27 148 -33 69 -115 154 -181 186 -56 27 -155 36 -205 19z m107 -79 c37
-13 61 -53 61 -104 0 -26 -9 -45 -34 -73 -33 -35 -38 -37 -96 -37 -55 0 -64 3
-86 28 -50 58 -22 140 60 178 48 22 53 22 95 8z m125 -205 c19 -18 20 -38 6
-65 -22 -41 -70 -16 -70 37 0 43 34 58 64 28z m72 -127 c30 -26 28 -46 -7 -91
-22 -28 -66 -35 -87 -14 -28 28 -8 102 31 118 32 13 33 12 63 -13z"/>
<path d="M2018 1672 c-38 -23 -35 -38 10 -61 39 -20 92 -67 92 -83 0 -14 58
20 70 41 17 33 12 76 -13 99 -30 28 -118 30 -159 4z"/>
</g>
</svg>
